<?xml version="1.0" standalone="no"?>
<!DOCTYPE svg PUBLIC "-//W3C//DTD SVG 20010904//EN"
 "http://www.w3.org/TR/2001/REC-SVG-20010904/DTD/svg10.dtd">
<svg version="1.0" xmlns="http://www.w3.org/2000/svg"
 width="400.000000pt" height="400.000000pt" viewBox="0 0 400.000000 400.000000"
 preserveAspectRatio="xMidYMid meet">
<metadata>
Created by potrace 1.14, written by Peter Selinger 2001-2017
</metadata>
<g transform="translate(0.000000,400.000000) scale(0.100000,-0.100000)"
fill="#000000" stroke="none">
<path d="M1799 3376 c-2 -2 -35 -7 -74 -10 -38 -4 -110 -13 -160 -21 -49 -9
-103 -17 -119 -20 -52 -8 -200 -46 -266 -68 -36 -12 -67 -22 -70 -22 -3 -1
-22 -9 -44 -18 -21 -9 -42 -17 -45 -17 -14 0 -117 -52 -183 -93 -56 -34 -67
-45 -70 -71 -6 -60 -1 -1152 6 -1225 4 -41 11 -82 16 -91 5 -10 7 -20 4 -22
-3 -3 4 -39 15 -79 65 -242 172 -443 298 -560 93 -87 280 -195 523 -303 132
-59 276 -131 299 -151 13 -11 35 -31 48 -44 l25 -24 25 28 c43 46 126 93 303
173 25 11 81 37 125 58 44 20 82 38 85 39 13 4 66 30 70 35 3 3 23 14 45 25
22 10 48 26 58 34 9 8 17 10 17 5 0 -5 4 -4 8 1 4 6 27 24 51 40 121 82 233
217 303 365 25 54 67 150 66 153 0 1 9 34 21 72 11 39 23 84 26 100 3 17 11
57 17 90 8 40 11 265 11 684 l0 624 -24 18 c-36 27 -185 103 -264 134 -143 57
-421 125 -573 141 -31 3 -70 8 -87 11 -35 6 -480 14 -486 9z m411 -100 c115
-9 142 -12 248 -31 46 -8 87 -14 90 -13 4 1 14 -1 22 -5 15 -6 121 -30 130
-30 3 0 43 -13 90 -29 47 -16 92 -31 101 -33 28 -6 226 -104 237 -117 11 -14
9 -1199 -2 -1253 -4 -16 -11 -55 -17 -85 -32 -162 -98 -315 -196 -455 -91
-130 -215 -215 -510 -350 -249 -114 -310 -143 -358 -174 l-46 -29 -35 23 c-41
28 -130 72 -382 189 -216 100 -330 169 -415 251 -132 127 -241 349 -284 575
-13 71 -16 183 -18 692 -2 438 1 610 9 617 37 30 211 108 332 149 66 23 254
67 319 76 22 3 63 8 90 12 28 3 53 8 56 10 3 1 63 6 135 9 71 4 130 8 131 9 4
4 180 -2 273 -8z"/>
<path d="M1849 3206 c-2 -2 -40 -6 -85 -9 -182 -13 -412 -61 -594 -124 -88
-31 -216 -89 -224 -102 -7 -11 -8 -1101 -1 -1146 2 -16 6 -48 9 -70 12 -88 45
-200 88 -295 124 -271 236 -361 713 -572 50 -22 124 -58 166 -79 l77 -40 145
71 c79 38 147 70 150 70 14 0 269 128 343 171 88 52 183 138 230 209 98 147
167 338 189 525 4 37 8 878 5 1131 0 28 -6 33 -67 61 -38 17 -88 39 -113 48
-25 9 -52 20 -62 25 -48 26 -370 94 -543 115 -55 7 -420 16 -426 11z m336 -51
c50 -3 101 -8 115 -10 88 -11 129 -16 160 -22 19 -4 44 -8 55 -9 11 -1 20 -3
20 -4 0 -1 7 -3 15 -5 8 -1 42 -9 75 -16 33 -7 65 -13 70 -14 6 0 12 -2 15 -5
3 -3 32 -14 65 -24 73 -23 201 -78 224 -98 14 -12 16 -66 15 -558 0 -300 -4
-570 -8 -600 -19 -134 -74 -299 -131 -395 -19 -32 -35 -60 -35 -62 0 -10 -65
-89 -100 -121 -55 -51 -154 -113 -288 -180 -67 -34 -126 -62 -130 -63 -17 -5
-125 -54 -218 -100 l-101 -50 -124 59 c-68 33 -175 83 -238 112 -139 63 -263
129 -273 144 -4 6 -8 7 -8 3 0 -5 -7 -2 -15 5 -29 27 -44 38 -50 38 -9 0 -80
74 -105 110 -13 19 -27 37 -30 40 -11 9 -78 145 -99 200 -29 74 -61 211 -70
290 -5 50 -7 1090 -2 1122 4 23 250 115 411 152 106 25 135 30 225 41 28 4 61
8 75 11 14 2 75 7 135 10 61 4 111 7 112 8 4 3 150 -2 238 -9z"/>
<path d="M1550 2930 c-117 -28 -236 -152 -257 -266 -24 -134 14 -244 119 -345
57 -55 51 -19 63 -340 4 -101 8 -204 10 -229 2 -25 6 -121 10 -215 3 -93 8
-183 11 -200 7 -40 61 -119 94 -138 24 -15 28 -14 54 2 35 23 63 65 75 111 8
30 14 135 26 450 5 135 16 354 19 383 2 15 0 27 -5 27 -4 0 -9 -16 -11 -37 -4
-43 -29 -53 -52 -18 -11 17 -12 25 -3 36 10 11 9 11 -6 0 -15 -12 -20 -11 -38
5 -12 11 -25 29 -30 42 -10 27 -31 25 -39 -4 -3 -10 -10 -28 -16 -38 -11 -19
-14 -18 -53 13 -36 28 -41 38 -41 72 0 29 -6 45 -25 61 -13 11 -22 26 -18 31
3 6 1 7 -5 3 -11 -7 -62 31 -62 46 0 5 -9 18 -20 30 -18 19 -22 32 -19 54 0 4
-5 10 -11 14 -14 8 -25 135 -14 159 7 17 9 29 12 70 2 19 6 23 27 18 23 -4 24
-3 11 12 -12 14 -11 20 10 51 13 19 24 31 24 27 0 -5 10 3 23 17 12 14 28 27
36 28 8 2 22 11 32 20 35 34 166 54 219 35 14 -5 32 -10 40 -12 34 -7 70 -25
70 -35 0 -5 6 -10 14 -10 23 0 107 -93 102 -112 -3 -13 2 -18 15 -18 19 0 19
2 4 31 -28 54 -83 105 -149 138 -52 27 -78 33 -137 36 -41 2 -90 -1 -109 -5z
m-3 -796 c5 -2 -28 -64 -37 -69 -14 -9 -23 15 -27 74 l-4 56 33 -30 c18 -17
34 -30 35 -31z m168 -84 c-3 -11 -11 -20 -16 -20 -5 0 -9 -6 -9 -13 0 -7 -11
-24 -25 -39 -14 -15 -25 -32 -25 -38 0 -23 -31 -8 -75 36 -41 42 -57 77 -37
86 4 2 14 15 22 29 8 15 26 40 39 57 l25 30 54 -54 c42 -41 52 -58 47 -74z
m40 -10 c3 -5 0 -10 -7 -11 -7 0 -8 -2 -3 -5 11 -4 9 -139 -2 -184 -3 -14 -5
-38 -4 -53 2 -23 -1 -28 -16 -25 -10 2 -17 10 -15 17 1 7 -1 10 -6 7 -13 -8
-72 54 -72 75 0 26 12 24 51 -11 38 -33 51 -38 43 -15 -4 8 -12 15 -18 15 -7
0 -24 12 -38 28 -31 32 -27 47 32 125 36 48 45 54 55 37z m-197 -82 l50 -52
-24 -23 c-14 -13 -30 -23 -36 -23 -6 0 -9 -3 -6 -6 4 -3 16 -1 27 6 18 9 21 8
21 -10 0 -21 -68 -120 -82 -120 -17 0 -8 67 12 85 11 10 18 21 15 23 -3 3 -11
-3 -18 -13 -10 -12 -14 -14 -14 -4 -1 8 -4 53 -8 102 -5 59 -4 87 3 87 6 0 33
-23 60 -52z m110 -171 c23 -23 42 -49 42 -56 0 -13 -58 -93 -72 -99 -5 -2 -6
-8 -2 -13 3 -5 0 -9 -7 -9 -17 0 -99 82 -99 100 0 8 12 29 26 45 22 25 26 26
22 9 -3 -11 1 -29 8 -39 8 -10 14 -24 14 -29 0 -6 -4 -5 -9 3 -5 7 -11 9 -14
4 -9 -15 22 -53 43 -53 10 0 26 10 34 22 14 20 14 25 1 45 -17 26 -19 37 -5
28 6 -3 10 1 10 9 0 9 -5 16 -11 16 -6 0 -9 6 -6 14 5 11 0 13 -24 6 -17 -5
-31 -5 -34 1 -4 5 1 9 9 9 9 0 15 3 15 8 -6 34 11 28 59 -21z m68 -124 c-2
-27 -5 -56 -5 -65 -1 -11 -10 -19 -23 -19 l-23 -2 23 -4 c20 -4 22 -10 22 -64
0 -43 -4 -59 -13 -59 -18 0 -89 69 -82 80 3 5 1 12 -5 15 -18 11 8 33 33 28
l22 -4 -22 13 c-18 11 -20 16 -10 34 21 36 69 94 79 94 5 0 7 -21 4 -47z
m-172 -22 c45 -46 43 -64 -10 -86 -20 -8 -38 -15 -40 -15 -2 0 -4 32 -4 70 0
39 4 70 8 70 4 0 25 -18 46 -39z m30 -108 c-9 -37 -23 -63 -33 -63 -5 0 -11
-9 -14 -20 -7 -28 -27 -25 -28 5 -4 72 -3 74 34 90 45 20 48 19 41 -12z m96
-123 c-14 -26 -3 -43 11 -17 26 46 31 -25 8 -100 -9 -27 -13 -31 -32 -24 -38
14 -44 37 -19 71 l23 31 -21 28 c-22 31 -26 46 -10 36 6 -3 10 0 10 7 0 19
-23 50 -35 48 -6 -2 -17 -2 -25 0 -11 1 -9 4 5 10 16 6 28 0 59 -30 34 -33 37
-40 26 -60z m-90 -25 c0 -5 -4 -4 -9 4 -6 10 -10 10 -16 1 -7 -11 20 -50 34
-48 24 3 34 -3 24 -13 -9 -9 -21 -5 -47 17 -43 36 -48 48 -35 81 l10 27 19
-30 c11 -16 20 -33 20 -39z m-35 -36 c40 -35 43 -49 16 -73 -19 -17 -20 -17
-36 7 -16 25 -32 97 -22 97 4 0 22 -14 42 -31z m98 -83 c19 -15 24 -31 5 -20
-7 5 -8 3 -4 -5 5 -7 0 -18 -10 -26 -25 -19 -27 -19 -58 6 -26 20 -26 22 -10
40 20 22 51 24 77 5z"/>
<path d="M1585 2121 c2 -4 0 -13 -5 -21 -5 -8 -3 -25 7 -43 14 -27 14 -29 -1
-24 -19 8 -19 5 -5 -27 12 -26 59 -42 59 -20 0 7 7 17 15 21 12 7 13 12 1 35
-9 18 -11 29 -4 36 16 16 -13 47 -44 48 -15 1 -26 -2 -23 -5z"/>
<path d="M1486 2782 c1 -15 2 -30 3 -34 1 -5 10 -8 21 -8 11 0 20 -4 20 -10 0
-13 47 -13 52 0 2 6 29 13 60 14 49 3 61 0 83 -20 22 -20 24 -26 13 -49 -14
-31 -64 -46 -102 -30 -12 5 -21 3 -27 -6 -6 -10 -2 -16 16 -22 13 -5 25 -18
27 -30 2 -12 10 -22 18 -22 8 0 30 -4 48 -9 28 -7 32 -12 32 -40 0 -44 -18
-64 -60 -68 -30 -3 -36 -7 -40 -33 -3 -16 -4 -45 -2 -62 4 -27 9 -33 28 -33
13 0 23 3 23 8 -5 30 6 41 60 61 70 25 91 52 91 115 0 39 -5 50 -34 77 l-33
32 25 22 c17 15 26 33 27 60 6 88 -44 114 -222 114 l-130 0 3 -27z"/>
<path d="M2410 2730 c-185 -5 -192 -6 -75 -9 228 -5 376 -4 382 3 3 3 -2 6
-13 7 -10 0 -35 1 -54 2 -19 1 -127 0 -240 -3z"/>
<path d="M1970 2726 c0 -10 28 -13 41 -5 10 6 7 9 -13 9 -16 0 -28 -2 -28 -4z"/>
<path d="M2031 2726 c7 -8 98 -10 105 -3 4 4 -19 7 -51 7 -32 0 -56 -2 -54 -4z"/>
<path d="M2163 2723 c9 -2 23 -2 30 0 6 3 -1 5 -18 5 -16 0 -22 -2 -12 -5z"/>
<path d="M1578 2710 c-9 -6 -14 -18 -11 -29 3 -13 -1 -21 -14 -25 -17 -6 -20
-17 -21 -102 0 -53 -3 -98 -6 -101 -2 -2 -11 -6 -20 -7 -9 -1 -16 -5 -16 -9 0
-4 0 -20 0 -37 0 -23 5 -30 19 -30 20 0 35 -25 25 -41 -3 -5 6 -9 20 -9 30 0
28 -16 28 195 0 126 2 142 19 155 16 13 17 18 7 32 -9 13 -18 15 -30 8z"/>
<path d="M2130 2690 c-48 -4 -55 -8 -56 -27 -1 -12 3 -27 7 -35 7 -11 11 -10
19 2 8 13 10 12 11 -5 3 -54 1 -93 -5 -112 -5 -16 -2 -22 11 -25 33 -7 54 3
47 24 -7 23 -7 138 0 146 4 3 6 -5 6 -17 0 -36 25 -19 26 18 0 18 -2 33 -5 34
-3 1 -31 0 -61 -3z"/>
<path d="M2255 2694 c-6 -3 -9 -43 -7 -104 3 -91 5 -100 23 -100 19 0 26 15
11 24 -12 7 -13 66 -2 66 5 0 13 -19 17 -42 7 -37 12 -43 33 -43 25 0 25 1 25
90 0 50 3 95 7 101 5 7 -1 10 -17 6 -14 -2 -22 -8 -19 -13 7 -12 14 -69 8 -69
-3 0 -13 19 -24 42 -17 39 -32 50 -55 42z"/>
<path d="M2432 2686 c0 -6 -4 -30 -8 -53 -10 -66 3 -128 30 -141 32 -14 67 5
77 43 11 40 3 125 -14 142 -16 16 -83 23 -85 9z m58 -90 c0 -47 -4 -88 -10
-91 -12 -7 -12 -9 -15 85 -2 78 0 90 16 90 5 0 9 -38 9 -84z"/>
<path d="M2599 2692 c-7 -38 5 -180 16 -201 8 -14 14 -20 15 -13 0 6 5 12 11
12 5 0 7 -6 4 -12 -4 -7 -1 -6 7 3 7 9 19 14 26 12 19 -7 27 28 27 118 0 71
-2 82 -17 85 -18 2 -25 -20 -10 -30 4 -2 7 -35 6 -73 -2 -88 -1 -83 -23 -83
-16 0 -18 8 -17 90 0 50 -1 90 -4 91 -3 0 -13 2 -22 4 -10 2 -19 0 -19 -3z"/>
<path d="M1965 2590 c0 -96 1 -99 24 -105 13 -3 26 -4 28 -1 3 3 6 50 7 105
l1 101 -30 0 -30 0 0 -100z"/>
<path d="M1601 2571 c-9 -6 -10 -11 -2 -15 13 -8 31 1 31 15 0 11 -11 11 -29
0z"/>
<path d="M1600 2485 c0 -8 5 -15 10 -15 6 0 10 7 10 15 0 8 -4 15 -10 15 -5 0
-10 -7 -10 -15z"/>
<path d="M1984 2471 c4 -6 0 -11 -11 -11 -21 -1 -55 -24 -47 -33 10 -9 -40
-64 -54 -59 -7 2 -10 -2 -7 -11 7 -17 -40 -51 -57 -41 -6 4 -8 3 -4 -4 3 -6
-3 -17 -14 -25 -11 -8 -22 -29 -25 -47 -2 -18 -14 -43 -26 -56 l-22 -23 32 11
c17 7 30 17 30 23 -6 49 3 72 33 89 51 31 108 87 129 128 16 31 25 38 50 38
38 0 30 -17 -17 -36 -38 -16 -43 -37 -17 -74 21 -32 34 -40 48 -32 5 3 5 -1
-2 -9 -7 -9 -11 -71 -12 -181 l0 -168 50 0 51 0 -4 185 -3 185 25 1 c214 4
386 -3 414 -16 62 -30 90 -119 56 -184 -29 -58 -65 -72 -183 -74 l-102 -2 -3
98 -3 97 -48 0 -48 0 0 -140 c0 -78 4 -143 9 -146 5 -3 77 -6 161 -6 139 0
157 2 196 22 156 79 180 282 48 395 -22 19 -57 40 -76 45 -20 5 -132 10 -249
10 l-213 0 16 -30 c19 -37 19 -37 -7 -51 -21 -11 -22 -11 -9 4 11 14 10 22 -8
52 -12 20 -21 40 -21 45 0 5 144 9 331 9 182 0 334 2 337 5 3 4 -148 6 -336 6
-387 0 -351 -1 -376 12 -13 7 -16 7 -12 -1z"/>
<path d="M1607 2433 c-4 -3 -7 -11 -7 -17 0 -6 5 -5 12 2 6 6 9 14 7 17 -3 3
-9 2 -12 -2z"/>
</g>
</svg>
